<?xml version="1.0" encoding="UTF-8" standalone="no"?>
<svg width="103px" height="56px" viewBox="0 0 103 56" version="1.1" xmlns="http://www.w3.org/2000/svg" xmlns:xlink="http://www.w3.org/1999/xlink">
    <!-- Generator: Sketch 40 (33762) - http://www.bohemiancoding.com/sketch -->
    <title>Group 2 Copy</title>
    <desc>Created with Sketch.</desc>
    <defs></defs>
    <g id="Page-1" stroke="none" stroke-width="1" fill="none" fill-rule="evenodd">
        <g id="Group-3" transform="translate(-14.000000, 0.000000)" fill="#3F3742">
            <g id="Group-2-Copy" transform="translate(14.000000, 0.000000)">
                <g id="1">
                    <g id="Group">
                        <path d="M69.848,1 C76.9520355,1 83.1199738,3.56797432 88.352,8.704 C93.5840262,13.8400257 96.2,20.211962 96.2,27.82 C96.2,35.428038 93.704025,41.9079732 88.712,47.26 C83.719975,52.6120268 77.5760365,55.288 70.28,55.288 C62.9839635,55.288 56.7800256,52.6480264 51.668,47.368 C46.5559744,42.0879736 44,35.8000365 44,28.504 C44,24.5199801 44.7199928,20.7880174 46.16,17.308 C47.6000072,13.8279826 49.519988,10.9120118 51.92,8.56 C54.320012,6.20798824 57.0799844,4.36000672 60.2,3.016 C63.3200156,1.67199328 66.5359834,1 69.848,1 L69.848,1 Z M60.884,38.548 C63.6440138,41.2120133 66.727983,42.544 70.136,42.544 C73.544017,42.544 76.6159863,41.248013 79.352,38.656 C82.0880137,36.063987 83.456,32.5840218 83.456,28.216 C83.456,23.8479782 82.0760138,20.3440132 79.316,17.704 C76.5559862,15.0639868 73.472017,13.744 70.064,13.744 C66.655983,13.744 63.5840137,15.0759867 60.848,17.74 C58.1119863,20.4040133 56.744,23.8719786 56.744,28.144 C56.744,32.4160214 58.1239862,35.8839867 60.884,38.548 L60.884,38.548 Z" id="Shape"></path>
                        <path d="M37.808,38.08 C38.9575394,37.2296361 40.4344339,35.9473528 41.4000015,33.891571 C42.0695197,32.4661058 43.2410889,30.4312859 43.776001,27.9640007 C44.1789301,26.1054879 43.8165627,25.828125 45.2879982,20.7036133 C46.7594337,15.5791016 48.6303711,12.5963459 51.378418,9.8920002 C51.5972272,10.2401059 51.7250157,8.73406113 53.9883308,8.98996115 C55.9268303,9.20913612 58.6765848,10.5512423 59.4438972,12.875947 C59.6794264,13.5895231 61.2417488,15.495142 59.4438972,17.7759991 C57.6460457,20.0568562 56.9492707,21.3428287 56.2947273,23.4015827 C55.7618988,25.0775034 55.7467208,26.2659606 55.7014656,27.2045612 C55.3646137,34.1909299 49.7728807,42.7827735 48.670948,44.2673035 C47.2336922,46.2035828 45.1976134,48.1778196 44.5496101,48.849823 C43.9016069,49.5218264 42.9592688,50.0896426 42.0952644,50.6176453 C41.2312601,51.1456479 40.1343387,51.6850061 39.3423347,52.1650085 C38.5503308,52.6450109 37.0800122,53.0799962 34.632,53.848 C32.1839878,54.6160038 29.8200114,55 27.54,55 C25.2599886,55 22.9560116,54.700003 20.628,54.1 C18.2999884,53.499997 15.9000124,52.4920071 13.428,51.076 C10.9559876,49.6599929 8.73600984,47.9320102 6.768,45.892 C4.79999016,43.8519898 3.18000636,41.236016 1.908,38.044 C0.63599364,34.851984 2.84217094e-14,31.3840187 2.84217094e-14,27.64 C2.84217094e-14,23.8959813 0.62399376,20.5000152 1.872,17.452 C3.12000624,14.4039848 4.71599028,11.88401 6.66,9.892 C8.60400972,7.89999004 10.8239875,6.23200672 13.32,4.888 C18.0240235,2.29598704 22.7519762,1 27.504,1 C29.7600113,1 32.0519884,1.34799652 34.38,2.044 C36.7080116,2.74000348 38.471994,3.4479964 39.672,4.168 L41.4,5.176 C42.2640043,5.70400264 42.9359976,6.13599832 43.416,6.472 C44.6640062,7.48000504 45.288,8.61999364 45.288,9.892 C45.288,11.1640064 44.784005,12.495993 43.776,13.888 C41.9039906,16.480013 40.2240074,17.776 38.736,17.776 C37.8719957,17.776 36.6480079,17.2480053 35.064,16.192 C33.0479899,14.5599918 30.3600168,13.744 27,13.744 C23.8799844,13.744 20.8080151,14.8239892 17.784,16.984 C16.3439928,18.0400053 15.1440048,19.5279904 14.184,21.448 C13.2239952,23.3680096 12.744,25.5399879 12.744,27.964 C12.744,30.3880121 13.2239952,32.5599904 14.184,34.48 C15.1440048,36.4000096 16.3679926,37.9119945 17.856,39.016 C20.7840146,41.1280106 23.8319842,42.184 27,42.184 C28.4880074,42.184 29.8919934,41.9920019 31.212,41.608 C32.5320066,41.2239981 33.4799971,40.8400019 34.056,40.456 C34.056,40.456 35.8613777,39.5200005 37.808,38.08 Z" id="C"></path>
                        <path d="M63,7.99781374 C63,4.13302793 66.1322812,1 69.9948424,1 L74.298584,1 C74.298584,1 85.6129754,2.6754927 89.8586426,2.60961914 C94.1043098,2.54374558 94.0026855,0.640624994 97.4609375,0.640625 C100.919189,0.640625006 97.4609375,0.640625 97.4609375,0.640625 C100.520077,0.839102332 103,4.13086332 103,6.92895508 C103,6.92895508 103,3.89407905 103,6.92895508 C103,8.4801629 102.908441,7.91204062 102.908441,7.91204062 C102.130715,11.6924515 98.3639381,14.8784333 94.4969342,15.0007772 C94.4969342,15.0007772 95.2999018,15.0117188 93.7036133,15.0117188 C85.9660488,15.0117188 69.9734351,13.5805225 69.9734351,13.5805225 C66.1221132,13.2599088 63,9.86281554 63,6.00218626 L63,7.99781374 Z" id="Rectangle-1"></path>
                    </g>
                </g>
            </g>
        </g>
    </g>
</svg>